<svg width="63" height="30" viewBox="0 0 63 30" fill="none" xmlns="http://www.w3.org/2000/svg">
<path d="M4.58807 15L0.355114 0.454545H4.24006L6.43466 9.9858H6.5554L9.0625 0.454545H12.2301L14.7372 10.0071H14.858L17.0597 0.454545H20.9375L16.7116 15H13.3239L10.7031 6.17898H10.5895L7.96875 15H4.58807ZM23.9542 15H20.1758L25.0835 0.454545H29.7638L34.6715 15H30.8931L27.4769 4.11932H27.3633L23.9542 15ZM23.4499 9.27557H31.3477V11.946H23.4499V9.27557ZM43.6506 4.81534C43.6032 4.29451 43.3925 3.88968 43.0185 3.60085C42.6491 3.30729 42.1212 3.16051 41.4347 3.16051C40.9801 3.16051 40.6013 3.2197 40.2983 3.33807C39.9953 3.45644 39.768 3.61979 39.6165 3.82812C39.465 4.03172 39.3868 4.2661 39.3821 4.53125C39.3726 4.74905 39.4152 4.94081 39.5099 5.10653C39.6094 5.27225 39.7514 5.41903 39.9361 5.54688C40.1255 5.66998 40.3527 5.77888 40.6179 5.87358C40.883 5.96828 41.1813 6.05114 41.5128 6.12216L42.7628 6.40625C43.4825 6.5625 44.117 6.77083 44.6662 7.03125C45.2202 7.29167 45.6842 7.6018 46.0582 7.96165C46.437 8.3215 46.7235 8.7358 46.9176 9.20455C47.1117 9.6733 47.2112 10.1989 47.2159 10.7812C47.2112 11.6998 46.9792 12.4882 46.5199 13.1463C46.0606 13.8045 45.4001 14.3087 44.5384 14.6591C43.6813 15.0095 42.6468 15.1847 41.4347 15.1847C40.2178 15.1847 39.1572 15.0024 38.2528 14.6378C37.3485 14.2732 36.6454 13.7192 36.1435 12.9759C35.6416 12.2325 35.3835 11.2926 35.3693 10.1562H38.7358C38.7642 10.625 38.8897 11.0156 39.1122 11.3281C39.3348 11.6406 39.6402 11.8774 40.0284 12.0384C40.4214 12.1993 40.8759 12.2798 41.392 12.2798C41.8655 12.2798 42.268 12.2159 42.5994 12.0881C42.9356 11.9602 43.1937 11.7827 43.3736 11.5554C43.5535 11.3281 43.6458 11.0677 43.6506 10.7741C43.6458 10.4995 43.5606 10.2652 43.3949 10.071C43.2292 9.87216 42.9735 9.7017 42.6278 9.55966C42.2869 9.41288 41.8513 9.27794 41.321 9.15483L39.8011 8.79972C38.5417 8.51089 37.5497 8.04451 36.8253 7.40057C36.1009 6.75189 35.741 5.87595 35.7457 4.77273C35.741 3.87311 35.9825 3.08475 36.4702 2.40767C36.9579 1.73059 37.6326 1.20265 38.4943 0.823864C39.3561 0.445075 40.3385 0.255681 41.4418 0.255681C42.5687 0.255681 43.5464 0.447443 44.375 0.830965C45.2083 1.20975 45.8546 1.74242 46.3139 2.42898C46.7732 3.11553 47.0076 3.91098 47.017 4.81534H43.6506ZM54.3679 15H48.9915V0.454545H54.3608C55.8428 0.454545 57.1188 0.745738 58.1889 1.32812C59.2637 1.90578 60.0923 2.73911 60.6747 3.82812C61.2571 4.91241 61.5483 6.20975 61.5483 7.72017C61.5483 9.23532 61.2571 10.5374 60.6747 11.6264C60.0971 12.7154 59.2708 13.5511 58.196 14.1335C57.1212 14.7112 55.8452 15 54.3679 15ZM52.5071 12.0028H54.233C55.0473 12.0028 55.7363 11.8655 56.2997 11.5909C56.8679 11.3116 57.2964 10.8594 57.5852 10.2344C57.8788 9.60464 58.0256 8.76657 58.0256 7.72017C58.0256 6.67377 57.8788 5.84044 57.5852 5.22017C57.2917 4.59517 56.8584 4.14536 56.2855 3.87074C55.7173 3.59138 55.0166 3.4517 54.1832 3.4517H52.5071V12.0028Z" fill="white"/>
<path d="M12 24.381V22.381C12 22.197 12.2489 22.0476 12.5556 22.0476C12.8622 22.0476 13.1111 22.197 13.1111 22.381V24.381C13.1111 24.5649 12.8622 24.7143 12.5556 24.7143C12.2489 24.7143 12 24.5649 12 24.381Z" fill="white"/>
<path d="M8 27.2381V25.9048C8 25.7208 8.24894 25.5714 8.55556 25.5714C8.86217 25.5714 9.11111 25.7208 9.11111 25.9048V27.2381C9.11111 27.4221 8.86217 27.5714 8.55556 27.5714C8.24894 27.5714 8 27.4221 8 27.2381Z" fill="white"/>
<path d="M12 27.2381V26.5714C12 26.3875 12.2489 26.2381 12.5556 26.2381C12.8622 26.2381 13.1111 26.3875 13.1111 26.5714V27.2381C13.1111 27.4221 12.8622 27.5714 12.5556 27.5714C12.2489 27.5714 12 27.4221 12 27.2381Z" fill="white"/>
<path d="M8 21.5238V20.8571C8 20.6732 8.24894 20.5238 8.55556 20.5238C8.86217 20.5238 9.11111 20.6732 9.11111 20.8571V21.5238C9.11111 21.7078 8.86217 21.8571 8.55556 21.8571C8.24894 21.8571 8 21.7078 8 21.5238Z" fill="white"/>
<path d="M8 24.381V24.2143C8 24.0303 8.24894 23.881 8.55556 23.881C8.86217 23.881 9.11111 24.0303 9.11111 24.2143V24.381C9.11111 24.5649 8.86217 24.7143 8.55556 24.7143C8.24894 24.7143 8 24.5649 8 24.381Z" fill="white"/>
<path d="M10 21.5238V21.3571C10 21.1732 10.2489 21.0238 10.5556 21.0238C10.8622 21.0238 11.1111 21.1732 11.1111 21.3571V21.5238C11.1111 21.7078 10.8622 21.8571 10.5556 21.8571C10.2489 21.8571 10 21.7078 10 21.5238Z" fill="white"/>
<path d="M12.6667 28.3333V29H8.77778C7.24467 29 6 28.2532 6 27.3333L6 20.6667C6 19.7468 7.24467 19 8.77778 19H13.2222C14.7553 19 16 19.7468 16 20.6667V27.3333C16 28.2532 14.7553 29 13.2222 29H12.1111V28.3333H13.2222C14.1421 28.3333 14.8889 27.8852 14.8889 27.3333V20.6667C14.8889 20.1148 14.1421 19.6667 13.2222 19.6667H8.77778C7.85794 19.6667 7.11111 20.1148 7.11111 20.6667V27.3333C7.11111 27.8852 7.85794 28.3333 8.77778 28.3333H12.6667Z" fill="white"/>
<path d="M10 27.2381V25.9048C10 25.7208 10.2489 25.5714 10.5556 25.5714C10.8622 25.5714 11.1111 25.7208 11.1111 25.9048V27.2381C11.1111 27.4221 10.8622 27.5714 10.5556 27.5714C10.2489 27.5714 10 27.4221 10 27.2381Z" fill="white"/>
<path d="M10 24.381V23.0476C10 22.8637 10.2489 22.7143 10.5556 22.7143C10.8622 22.7143 11.1111 22.8637 11.1111 23.0476V24.381C11.1111 24.5649 10.8622 24.7143 10.5556 24.7143C10.2489 24.7143 10 24.5649 10 24.381Z" fill="white"/>
<path d="M27.4091 22.2273L26.2045 22.5682C26.1288 22.3674 26.017 22.1723 25.8693 21.983C25.7254 21.7898 25.5284 21.6307 25.2784 21.5057C25.0284 21.3807 24.7083 21.3182 24.3182 21.3182C23.7841 21.3182 23.339 21.4413 22.983 21.6875C22.6307 21.9299 22.4545 22.2386 22.4545 22.6136C22.4545 22.947 22.5758 23.2102 22.8182 23.4034C23.0606 23.5966 23.4394 23.7576 23.9545 23.8864L25.25 24.2045C26.0303 24.3939 26.6117 24.6837 26.9943 25.0739C27.3769 25.4602 27.5682 25.9583 27.5682 26.5682C27.5682 27.0682 27.4242 27.5152 27.1364 27.9091C26.8523 28.303 26.4545 28.6136 25.9432 28.8409C25.4318 29.0682 24.8371 29.1818 24.1591 29.1818C23.2689 29.1818 22.5322 28.9886 21.9489 28.6023C21.3655 28.2159 20.9962 27.6515 20.8409 26.9091L22.1136 26.5909C22.2348 27.0606 22.464 27.4129 22.8011 27.6477C23.142 27.8826 23.5871 28 24.1364 28C24.7614 28 25.2576 27.8674 25.625 27.6023C25.9962 27.3333 26.1818 27.0114 26.1818 26.6364C26.1818 26.3333 26.0758 26.0795 25.8636 25.875C25.6515 25.6667 25.3258 25.5114 24.8864 25.4091L23.4318 25.0682C22.6326 24.8788 22.0455 24.5852 21.6705 24.1875C21.2992 23.786 21.1136 23.2841 21.1136 22.6818C21.1136 22.1894 21.2519 21.7538 21.5284 21.375C21.8087 20.9962 22.1894 20.6989 22.6705 20.483C23.1553 20.267 23.7045 20.1591 24.3182 20.1591C25.1818 20.1591 25.8598 20.3485 26.3523 20.7273C26.8485 21.1061 27.2008 21.6061 27.4091 22.2273ZM33.3821 20.2727V21.4091H28.8594V20.2727H33.3821ZM30.1776 18.1818H31.5185V26.5C31.5185 26.8788 31.5734 27.1629 31.6832 27.3523C31.7969 27.5379 31.9408 27.6629 32.1151 27.7273C32.2931 27.7879 32.4806 27.8182 32.6776 27.8182C32.8253 27.8182 32.9465 27.8106 33.0412 27.7955C33.1359 27.7765 33.2116 27.7614 33.2685 27.75L33.5412 28.9545C33.4503 28.9886 33.3234 29.0227 33.1605 29.0568C32.9976 29.0947 32.7912 29.1136 32.5412 29.1136C32.1624 29.1136 31.7912 29.0322 31.4276 28.8693C31.0677 28.7064 30.7685 28.4583 30.5298 28.125C30.295 27.7917 30.1776 27.3712 30.1776 26.8636V18.1818ZM38.8509 29.1818C38.063 29.1818 37.3717 28.9943 36.777 28.6193C36.1861 28.2443 35.724 27.7197 35.3906 27.0455C35.0611 26.3712 34.8963 25.5833 34.8963 24.6818C34.8963 23.7727 35.0611 22.9792 35.3906 22.3011C35.724 21.6231 36.1861 21.0966 36.777 20.7216C37.3717 20.3466 38.063 20.1591 38.8509 20.1591C39.6387 20.1591 40.3281 20.3466 40.919 20.7216C41.5137 21.0966 41.9759 21.6231 42.3054 22.3011C42.6387 22.9792 42.8054 23.7727 42.8054 24.6818C42.8054 25.5833 42.6387 26.3712 42.3054 27.0455C41.9759 27.7197 41.5137 28.2443 40.919 28.6193C40.3281 28.9943 39.6387 29.1818 38.8509 29.1818ZM38.8509 27.9773C39.4493 27.9773 39.9418 27.8239 40.3281 27.517C40.7145 27.2102 41.0005 26.8068 41.1861 26.3068C41.3717 25.8068 41.4645 25.2652 41.4645 24.6818C41.4645 24.0985 41.3717 23.5549 41.1861 23.0511C41.0005 22.5473 40.7145 22.1402 40.3281 21.8295C39.9418 21.5189 39.4493 21.3636 38.8509 21.3636C38.2524 21.3636 37.7599 21.5189 37.3736 21.8295C36.9872 22.1402 36.7012 22.5473 36.5156 23.0511C36.33 23.5549 36.2372 24.0985 36.2372 24.6818C36.2372 25.2652 36.33 25.8068 36.5156 26.3068C36.7012 26.8068 36.9872 27.2102 37.3736 27.517C37.7599 27.8239 38.2524 27.9773 38.8509 27.9773ZM44.8523 29V20.2727H46.1477V21.5909H46.2386C46.3977 21.1591 46.6856 20.8087 47.1023 20.5398C47.5189 20.2708 47.9886 20.1364 48.5114 20.1364C48.6098 20.1364 48.733 20.1383 48.8807 20.142C49.0284 20.1458 49.1402 20.1515 49.2159 20.1591V21.5227C49.1705 21.5114 49.0663 21.4943 48.9034 21.4716C48.7443 21.4451 48.5758 21.4318 48.3977 21.4318C47.9735 21.4318 47.5947 21.5208 47.2614 21.6989C46.9318 21.8731 46.6705 22.1155 46.4773 22.4261C46.2879 22.733 46.1932 23.0833 46.1932 23.4773V29H44.8523ZM54.1989 29.1818C53.358 29.1818 52.6326 28.9962 52.0227 28.625C51.4167 28.25 50.9489 27.7273 50.6193 27.0568C50.2936 26.3826 50.1307 25.5985 50.1307 24.7045C50.1307 23.8106 50.2936 23.0227 50.6193 22.3409C50.9489 21.6553 51.4072 21.1212 51.9943 20.7386C52.5852 20.3523 53.2746 20.1591 54.0625 20.1591C54.517 20.1591 54.9659 20.2348 55.4091 20.3864C55.8523 20.5379 56.2557 20.7841 56.6193 21.125C56.983 21.4621 57.2727 21.9091 57.4886 22.4659C57.7045 23.0227 57.8125 23.7083 57.8125 24.5227V25.0909H51.0852V23.9318H56.4489C56.4489 23.4394 56.3504 23 56.1534 22.6136C55.9602 22.2273 55.6837 21.9223 55.3239 21.6989C54.9678 21.4754 54.5473 21.3636 54.0625 21.3636C53.5284 21.3636 53.0663 21.4962 52.6761 21.7614C52.2898 22.0227 51.9924 22.3636 51.7841 22.7841C51.5758 23.2045 51.4716 23.6553 51.4716 24.1364V24.9091C51.4716 25.5682 51.5852 26.1269 51.8125 26.5852C52.0436 27.0398 52.3636 27.3864 52.7727 27.625C53.1818 27.8598 53.6572 27.9773 54.1989 27.9773C54.5511 27.9773 54.8693 27.928 55.1534 27.8295C55.4413 27.7273 55.6894 27.5758 55.8977 27.375C56.1061 27.1705 56.267 26.9167 56.3807 26.6136L57.6761 26.9773C57.5398 27.4167 57.3106 27.803 56.9886 28.1364C56.6667 28.4659 56.2689 28.7235 55.7955 28.9091C55.322 29.0909 54.7898 29.1818 54.1989 29.1818Z" fill="white"/>
</svg>
